<?xml version="1.0" standalone="no"?><!DOCTYPE svg PUBLIC "-//W3C//DTD SVG 1.1//EN" "http://www.w3.org/Graphics/SVG/1.1/DTD/svg11.dtd"><svg t="1599643620492" class="icon" viewBox="0 0 1024 1024" version="1.1" xmlns="http://www.w3.org/2000/svg" p-id="5003" xmlns:xlink="http://www.w3.org/1999/xlink" width="200" height="200"><defs><style type="text/css"></style></defs><path d="M213.333333 597.333333a85.333333 85.333333 0 1 1 85.333334-85.333333 85.333333 85.333333 0 0 1-85.333334 85.333333z m0-136.533333a51.2 51.2 0 1 0 51.2 51.2 51.413333 51.413333 0 0 0-51.2-51.2zM512 597.333333a85.333333 85.333333 0 1 1 85.333333-85.333333 85.333333 85.333333 0 0 1-85.333333 85.333333z m0-136.533333a51.2 51.2 0 1 0 51.2 51.2 51.413333 51.413333 0 0 0-51.2-51.2zM810.666667 597.333333a85.333333 85.333333 0 1 1 85.333333-85.333333 85.333333 85.333333 0 0 1-85.333333 85.333333z m0-136.533333a51.2 51.2 0 1 0 51.2 51.2 51.413333 51.413333 0 0 0-51.2-51.2z" p-id="5004" fill="#707070"></path></svg>